<svg id="Capa_1" enable-background="new 0 0 512 512" height="512" viewBox="0 0 512 512" width="512" xmlns="http://www.w3.org/2000/svg"><path d="m348 250h-275v-42.372c0-21.886 17.742-39.628 39.628-39.628h203.181c17.778 0 32.191 14.413 32.191 32.191z" fill="#fff4f4"/><path d="m315.809 168h-97.617v82h129.808v-49.809c0-17.778-14.413-32.191-32.191-32.191z" fill="#eee1dc"/><path d="m285 171c-8.284 0-15-6.716-15-15v-30c0-8.284 6.716-15 15-15s15 6.716 15 15v30c0 8.284-6.716 15-15 15z" fill="#ffcd00"/><path d="m389.689 223.226-53.215-61.938c-8.7-10.505-20.999-16.288-34.65-16.288h-176.824c-45.215 0-82 36.785-82 82v8.991c0 8.284 6.716 15 15 15s15-6.716 15-15v-8.991c0-28.673 23.327-52 52-52h16v60.991c0 8.284 6.716 15 15 15s15-6.716 15-15v-60.991h66v51.5c0 8.284 6.716 15 15 15s15-6.716 15-15v-51.5h34.825c4.769 0 8.56 1.791 11.588 5.476.069.084.14.167.21.25l53.311 62.05c5.399 6.285 14.87 7.002 21.152 1.603 6.284-5.4 7.001-14.87 1.603-21.153z" fill="#fdbf00"/><path d="m389.689 223.226-53.215-61.938c-8.7-10.505-20.999-16.288-34.65-16.288h-83.633v30h18.809v51.5c0 8.284 6.716 15 15 15s15-6.716 15-15v-51.5h34.825c4.769 0 8.56 1.791 11.588 5.476.069.084.14.167.21.25l53.311 62.05c5.399 6.285 14.87 7.002 21.152 1.603 6.284-5.4 7.001-14.87 1.603-21.153z" fill="#ff8856"/><path d="m466.965 241.174c-.161-.043-.322-.083-.484-.121l-84.78-19.666c-1.111-.258-2.248-.388-3.389-.388l-320.312-.009c-1.567 0-3.125.246-4.617.728-31.93 10.328-53.383 39.778-53.383 73.282v28c0 24.813 20.187 45 45 45h452c8.284 0 15-6.716 15-15v-55.307c0-26.604-18.098-49.318-45.035-56.519z" fill="#ffcd00"/><path d="m466.965 241.174c-.161-.043-.322-.083-.484-.121l-84.78-19.666c-1.111-.258-2.248-.388-3.389-.388l-160.12-.005v147.006h278.808c8.284 0 15-6.716 15-15v-55.307c0-26.604-18.098-49.318-45.035-56.519z" fill="#fdbf00"/><path d="m270 291h-6c-8.284 0-15-6.716-15-15s6.716-15 15-15h6c8.284 0 15 6.716 15 15s-6.716 15-15 15z" fill="#ffde46"/><path d="m160 291h-6c-8.284 0-15-6.716-15-15s6.716-15 15-15h6c8.284 0 15 6.716 15 15s-6.716 15-15 15z" fill="#fff36c"/><ellipse clip-rule="evenodd" cx="404" cy="353" fill="#f6efea" fill-rule="evenodd" rx="33" ry="33" transform="matrix(.707 -.707 .707 .707 -131.28 389.063)"/><path d="m404 401c-26.467 0-48-21.533-48-48s21.533-48 48-48 48 21.533 48 48-21.533 48-48 48zm0-66c-9.925 0-18 8.075-18 18s8.075 18 18 18 18-8.075 18-18-8.075-18-18-18z" fill="#03232e"/><ellipse clip-rule="evenodd" cx="108" cy="353" fill="#fff4f4" fill-rule="evenodd" rx="33" ry="33" transform="matrix(.707 -.707 .707 .707 -217.976 179.759)"/><path d="m108 401c-26.467 0-48-21.533-48-48s21.533-48 48-48 48 21.533 48 48-21.533 48-48 48zm0-66c-9.925 0-18 8.075-18 18s8.075 18 18 18 18-8.075 18-18-8.075-18-18-18z" fill="#07485e"/></svg>